<?xml version="1.0" standalone="no"?><!DOCTYPE svg PUBLIC "-//W3C//DTD SVG 1.1//EN" "http://www.w3.org/Graphics/SVG/1.1/DTD/svg11.dtd"><svg t="1544184947851" class="icon" style="" viewBox="0 0 1024 1024" version="1.1" xmlns="http://www.w3.org/2000/svg" p-id="2448" xmlns:xlink="http://www.w3.org/1999/xlink" width="200" height="200"><defs><style type="text/css"></style></defs><path d="M512 96C282.2 96 96 282.2 96 512c0 229.8 186.2 416 416 416 229.8 0 416-186.2 416-416C928 282.2 741.8 96 512 96zM512 893.4c-117.2 0-222.2-53.2-292.2-136.6 35.6-15.4 124.4-47.4 180.6-63.8 4.4-1.4 5.2-1.6 5.2-21.4 0-21.2-2.4-36.2-7.6-47.2-7-15-15.4-40.4-18.4-63.2-8.4-9.8-19.8-29-27.2-65.8-6.4-32.4-3.4-44.2 0.8-55.2 0.4-1.2 1-2.4 1.2-3.6 1.6-7.4-0.6-47-6.2-77.6-3.8-21 1-65.6 30-102.6 18.2-23.4 53.2-52 116-56l35 0c63.8 4 98.8 32.6 117 56 29 37 33.8 81.6 29.8 102.6-5.6 30.6-7.8 70-6.2 77.6 0.2 1.2 0.8 2.4 1.2 3.4 4.2 11 7.4 22.8 0.8 55.2-7.4 36.8-18.8 56-27.2 65.8-3 22.8-11.4 48-18.4 63.2-6.6 13.8-13.2 30.2-13.2 46.6 0 19.8 0.8 20 5.4 21.4 53.4 15.8 145.4 47.6 186 64.2C734.4 840 629.4 893.4 512 893.4z" p-id="2449" fill="#8a8a8a"></path></svg>