<?xml version="1.0" standalone="no"?><!DOCTYPE svg PUBLIC "-//W3C//DTD SVG 1.1//EN" "http://www.w3.org/Graphics/SVG/1.1/DTD/svg11.dtd"><svg t="1544184973485" class="icon" style="" viewBox="0 0 1024 1024" version="1.1" xmlns="http://www.w3.org/2000/svg" p-id="2675" xmlns:xlink="http://www.w3.org/1999/xlink" width="200" height="200"><defs><style type="text/css"></style></defs><path d="M512 96C297 96 120.2 259 98.4 468.2c-1.6 14.4-2.4 29-2.4 43.8 0 14.8 0.8 29.4 2.4 43.8C120.2 765 297 928 512 928c229.8 0 416-186.2 416-416S741.8 96 512 96z m271.6 652.2c-45.4-17.2-119-42.4-164.8-56-4.8-1.4-5.4-1.8-5.4-21.4 0-16.2 6.6-32.6 13.2-46.6 7.2-15 15.4-40.4 18.4-63.2 8.4-9.8 20-29 27.2-65.8 6.4-32.4 3.4-44.2-0.8-55.2-0.4-1.2-1-2.4-1.2-3.4-1.6-7.6 0.6-47 6.2-77.6 3.8-21-1-65.6-29.8-102.6-18.2-23.4-53.2-52-117-56h-35c-62.8 4-97.6 32.6-116 56-29 37-33.8 81.6-30 102.6 5.6 30.6 7.8 70 6.2 77.6-0.4 1.4-0.8 2.4-1.2 3.6-4.2 11-7.4 22.8-0.8 55.2 7.4 36.8 18.8 56 27.2 65.8 3 22.8 11.4 48 18.4 63.2 5.2 11 7.6 26 7.6 47.2 0 19.8-0.8 20-5.2 21.4-47.4 14-117.8 38.8-160 55.6C183.2 682.8 152 599.8 152 512c0-96.2 37.4-186.6 105.4-254.6S415.8 152 512 152c96.2 0 186.6 37.4 254.6 105.4S872 415.8 872 512c0 87.8-31.2 170.8-88.4 236.2z" p-id="2676" fill="#3eb060"></path></svg>